<?xml version="1.0" standalone="no"?>
<!DOCTYPE svg PUBLIC "-//W3C//DTD SVG 20010904//EN"
 "http://www.w3.org/TR/2001/REC-SVG-20010904/DTD/svg10.dtd">
<svg version="1.0" xmlns="http://www.w3.org/2000/svg"
 width="592.000000pt" height="592.000000pt" viewBox="0 0 592.000000 592.000000"
 preserveAspectRatio="xMidYMid meet">
<metadata>
Created by potrace 1.11, written by Peter Selinger 2001-2013
</metadata>
<g transform="translate(0.000000,592.000000) scale(0.100000,-0.100000)"
fill="#000000" stroke="none">
<path d="M1628 4235 c-1 -1 -25 -5 -53 -9 -205 -24 -465 -139 -629 -278 -76
-65 -206 -201 -206 -217 0 -4 -7 -14 -15 -21 -19 -16 -111 -171 -108 -182 2
-4 -2 -8 -7 -8 -6 0 -10 -5 -10 -10 0 -6 -9 -29 -19 -53 -22 -49 -33 -77 -36
-93 -2 -6 -10 -36 -18 -65 -24 -84 -51 -251 -48 -299 1 -8 1 -28 0 -45 -1 -33
-1 -31 5 -95 5 -55 25 -187 31 -210 3 -10 12 -36 34 -100 13 -36 24 -75 25
-87 0 -12 3 -20 5 -17 2 2 18 -24 36 -59 17 -34 46 -84 63 -111 17 -27 29 -53
25 -59 -3 -6 -1 -7 5 -3 6 3 16 -2 21 -13 22 -41 183 -211 200 -211 5 0 12 -9
16 -20 3 -11 9 -19 13 -19 21 3 32 -3 32 -18 0 -9 3 -14 6 -10 7 7 105 -60
117 -79 4 -7 14 -11 22 -8 8 4 15 1 15 -5 0 -6 3 -10 8 -9 15 4 52 -14 47 -23
-3 -5 1 -6 9 -3 10 4 16 1 16 -7 0 -7 3 -10 6 -7 3 4 38 -7 77 -23 40 -17 73
-30 75 -29 15 2 32 -2 29 -7 -3 -5 5 -9 16 -9 62 -3 91 -12 98 -30 6 -16 8
-16 8 -2 1 10 8 15 19 13 9 -2 21 -4 25 -4 5 -1 5 -6 2 -12 -4 -6 2 -5 13 2
17 10 23 10 36 0 13 -11 16 -11 16 0 0 12 2 12 9 0 5 -8 11 -9 15 -3 4 6 17 7
34 3 27 -8 95 -6 119 3 7 3 15 1 18 -5 4 -5 12 -6 18 -2 6 4 23 8 37 9 14 2
43 6 65 10 22 3 54 7 72 8 17 0 29 4 27 8 -4 5 61 22 91 23 6 0 13 4 16 8 3 5
12 9 20 11 8 1 41 14 74 29 33 15 63 26 66 25 3 -2 13 5 23 15 10 9 21 15 26
12 4 -3 11 2 14 11 3 8 10 12 16 9 6 -3 13 1 16 9 3 9 10 14 14 11 4 -2 15 4
25 15 10 11 22 17 26 14 5 -3 9 -1 9 4 0 5 19 23 43 40 23 17 59 47 80 67 21
19 43 32 49 29 7 -4 8 -2 4 4 -4 7 3 22 16 35 46 47 84 93 113 137 16 25 32
47 35 50 32 32 149 297 142 323 -1 4 3 7 10 7 6 0 9 3 6 6 -4 3 -2 20 4 37 10
34 16 65 22 107 1 14 4 30 4 36 2 13 82 24 82 11 0 -4 9 -3 19 3 13 6 22 7 26
0 3 -6 15 -6 29 0 13 5 26 7 29 4 5 -5 93 -8 112 -4 6 1 14 2 18 1 9 -2 187
-2 269 0 26 0 52 -2 58 -6 5 -3 10 -2 10 4 0 6 11 7 28 3 15 -4 41 -6 57 -5
40 3 157 5 170 3 6 -1 13 -2 17 -1 15 2 133 3 143 1 6 -1 13 -2 17 -1 14 2
133 3 143 1 6 -1 26 -1 46 0 34 1 37 -1 54 -47 44 -118 73 -162 168 -255 60
-58 207 -152 207 -132 0 3 6 2 13 -4 36 -31 255 -50 335 -30 20 5 48 11 62 14
32 7 165 70 193 92 12 9 51 47 87 83 82 83 143 193 167 303 9 40 7 232 -2 271
-4 17 -8 35 -9 40 -1 6 -5 16 -9 23 -5 6 -6 12 -3 12 3 0 -13 37 -36 82 -31
61 -61 102 -118 158 -96 95 -180 142 -325 178 -53 14 -242 6 -300 -12 -207
-65 -360 -213 -435 -423 -9 -24 -18 -32 -38 -33 -82 -2 -133 -1 -142 5 -5 3
-10 2 -10 -4 0 -6 -11 -7 -27 -3 -16 4 -41 6 -58 5 -34 -3 -157 -5 -165 -3 -4
1 -340 0 -410 -1 -8 0 -53 0 -100 0 -47 0 -103 0 -125 0 -22 0 -55 2 -72 4
-18 2 -33 1 -33 -4 0 -5 -10 -5 -22 0 -29 11 -39 11 -60 0 -10 -6 -19 -5 -23
1 -3 5 -12 7 -20 3 -9 -3 -16 1 -17 8 0 8 -2 25 -4 39 -1 14 -10 52 -19 85 -8
33 -18 70 -20 82 -3 12 -14 42 -25 67 -11 26 -20 50 -21 54 0 4 -21 47 -46 95
-75 146 -171 265 -309 385 -109 96 -310 208 -424 237 -3 1 -12 4 -20 8 -15 6
-121 31 -175 42 -32 7 -331 16 -337 10z"/>
<path d="M1010 1879 c0 -5 5 -7 10 -4 6 3 10 8 10 11 0 2 -4 4 -10 4 -5 0 -10
-5 -10 -11z"/>
<path d="M2710 1880 c0 -5 5 -10 11 -10 5 0 7 5 4 10 -3 6 -8 10 -11 10 -2 0
-4 -4 -4 -10z"/>
<path d="M1050 1859 c0 -5 5 -7 10 -4 6 3 10 8 10 11 0 2 -4 4 -10 4 -5 0 -10
-5 -10 -11z"/>
<path d="M2373 1805 c0 -8 4 -12 9 -9 5 3 6 10 3 15 -9 13 -12 11 -12 -6z"/>
<path d="M1175 1800 c3 -5 8 -10 11 -10 2 0 4 5 4 10 0 6 -5 10 -11 10 -5 0
-7 -4 -4 -10z"/>
<path d="M2293 1769 c-2 -23 3 -25 10 -4 4 8 3 16 -1 19 -4 3 -9 -4 -9 -15z"/>
<path d="M2326 1778 c3 -5 10 -6 15 -3 13 9 11 12 -6 12 -8 0 -12 -4 -9 -9z"/>
<path d="M2415 1760 c3 -5 8 -10 11 -10 2 0 4 5 4 10 0 6 -5 10 -11 10 -5 0
-7 -4 -4 -10z"/>
<path d="M1295 1740 c3 -5 8 -10 11 -10 2 0 4 5 4 10 0 6 -5 10 -11 10 -5 0
-7 -4 -4 -10z"/>
<path d="M2193 1725 c0 -8 4 -12 9 -9 5 3 6 10 3 15 -9 13 -12 11 -12 -6z"/>
<path d="M1295 1700 c3 -5 8 -10 11 -10 2 0 4 5 4 10 0 6 -5 10 -11 10 -5 0
-7 -4 -4 -10z"/>
<path d="M1450 1679 c0 -5 5 -7 10 -4 6 3 10 8 10 11 0 2 -4 4 -10 4 -5 0 -10
-5 -10 -11z"/>
<path d="M1833 1663 c4 -3 1 -13 -6 -22 -11 -14 -10 -14 5 -2 16 12 16 31 1
31 -4 0 -3 -3 0 -7z"/>
<path d="M2149 1643 c-13 -16 -12 -17 4 -4 16 13 21 21 13 21 -2 0 -10 -8 -17
-17z"/>
<path d="M1705 1640 c-3 -6 1 -7 9 -4 18 7 21 14 7 14 -6 0 -13 -4 -16 -10z"/>
<path d="M1410 1625 c0 -7 30 -13 34 -7 3 4 -4 9 -15 9 -10 1 -19 0 -19 -2z"/>
<path d="M1535 1620 c3 -5 8 -10 11 -10 2 0 4 5 4 10 0 6 -5 10 -11 10 -5 0
-7 -4 -4 -10z"/>
<path d="M1575 1620 c3 -5 8 -10 11 -10 2 0 4 5 4 10 0 6 -5 10 -11 10 -5 0
-7 -4 -4 -10z"/>
<path d="M2094 1622 c4 -3 14 -7 22 -8 9 -1 13 0 10 4 -4 3 -14 7 -22 8 -9 1
-13 0 -10 -4z"/>
<path d="M1579 1588 c-5 -18 -6 -38 -1 -34 7 8 12 36 6 36 -2 0 -4 -1 -5 -2z"/>
<path d="M1610 1579 c0 -5 5 -7 10 -4 6 3 10 8 10 11 0 2 -4 4 -10 4 -5 0 -10
-5 -10 -11z"/>
<path d="M1655 1580 c3 -5 8 -10 11 -10 2 0 4 5 4 10 0 6 -5 10 -11 10 -5 0
-7 -4 -4 -10z"/>
<path d="M1850 1579 c0 -5 5 -7 10 -4 6 3 10 8 10 11 0 2 -4 4 -10 4 -5 0 -10
-5 -10 -11z"/>
<path d="M1895 1580 c3 -5 8 -10 11 -10 2 0 4 5 4 10 0 6 -5 10 -11 10 -5 0
-7 -4 -4 -10z"/>
<path d="M2105 1560 c-3 -6 1 -7 9 -4 18 7 21 14 7 14 -6 0 -13 -4 -16 -10z"/>
<path d="M1695 1541 c-3 -5 -2 -12 3 -15 5 -3 9 1 9 9 0 17 -3 19 -12 6z"/>
<path d="M1500 1526 c0 -2 8 -10 18 -17 15 -13 16 -12 3 4 -13 16 -21 21 -21
13z"/>
<path d="M1715 1501 c-3 -5 -2 -12 3 -15 5 -3 9 1 9 9 0 17 -3 19 -12 6z"/>
<path d="M1790 1486 c0 -2 7 -7 16 -10 8 -3 12 -2 9 4 -6 10 -25 14 -25 6z"/>
<path d="M1350 1400 c0 -5 5 -10 11 -10 5 0 7 5 4 10 -3 6 -8 10 -11 10 -2 0
-4 -4 -4 -10z"/>
<path d="M1587 1339 c7 -7 15 -10 18 -7 3 3 -2 9 -12 12 -14 6 -15 5 -6 -5z"/>
</g>
</svg>
